<?xml version="1.0" encoding="UTF-8" standalone="no"?>
<!DOCTYPE svg PUBLIC "-//W3C//DTD SVG 1.1//EN"
 "http://www.w3.org/Graphics/SVG/1.1/DTD/svg11.dtd">
<!-- Generated by graphviz version 2.47.3 (20210619.1520)
 -->
<!-- Title: dependencies Pages: 1 -->
<svg width="292pt" height="174pt"
 viewBox="0.00 0.00 292.00 173.80" xmlns="http://www.w3.org/2000/svg" xmlns:xlink="http://www.w3.org/1999/xlink">
<g id="graph0" class="graph" transform="scale(1 1) rotate(0) translate(4 169.8)">
<title>dependencies</title>
<polygon fill="white" stroke="transparent" points="-4,4 -4,-169.8 288,-169.8 288,4 -4,4"/>
<text text-anchor="middle" x="142" y="-8.2" font-family="sans-serif" font-size="14.00">dependencies</text>
<g id="clust1" class="cluster">
<title>cluster_AppModule</title>
<polygon fill="none" stroke="black" stroke-dasharray="1,5" points="8,-32.8 8,-157.8 276,-157.8 276,-32.8 8,-32.8"/>
</g>
<g id="clust3" class="cluster">
<title>cluster_AppModule_imports</title>
<polygon fill="none" stroke="black" points="154,-40.8 154,-92.8 268,-92.8 268,-40.8 154,-40.8"/>
</g>
<g id="clust6" class="cluster">
<title>cluster_AppModule_providers</title>
<polygon fill="none" stroke="black" points="16,-40.8 16,-92.8 146,-92.8 146,-40.8 16,-40.8"/>
</g>
<!-- FilmesModule -->
<g id="node1" class="node">
<title>FilmesModule</title>
<polygon fill="#8dd3c7" stroke="black" points="259.66,-84.8 256.66,-88.8 235.66,-88.8 232.66,-84.8 162.34,-84.8 162.34,-48.8 259.66,-48.8 259.66,-84.8"/>
<text text-anchor="middle" x="211" y="-62.6" font-family="Times,serif" font-size="14.00">FilmesModule</text>
</g>
<!-- AppModule -->
<g id="node2" class="node">
<title>AppModule</title>
<polygon fill="#8dd3c7" stroke="black" points="187.66,-149.8 184.66,-153.8 163.66,-153.8 160.66,-149.8 104.34,-149.8 104.34,-113.8 187.66,-113.8 187.66,-149.8"/>
<text text-anchor="middle" x="146" y="-127.6" font-family="Times,serif" font-size="14.00">AppModule</text>
</g>
<!-- FilmesModule&#45;&gt;AppModule -->
<g id="edge1" class="edge">
<title>FilmesModule&#45;&gt;AppModule</title>
<path fill="none" stroke="black" d="M175,-84.91C175,-84.91 175,-103.79 175,-103.79"/>
<polygon fill="black" stroke="black" points="171.5,-103.79 175,-113.79 178.5,-103.79 171.5,-103.79"/>
</g>
<!-- AppService -->
<g id="node3" class="node">
<title>AppService</title>
<ellipse fill="#fdb462" stroke="black" cx="81" cy="-66.8" rx="56.74" ry="18"/>
<text text-anchor="middle" x="81" y="-62.6" font-family="Times,serif" font-size="14.00">AppService</text>
</g>
<!-- AppService&#45;&gt;AppModule -->
<g id="edge2" class="edge">
<title>AppService&#45;&gt;AppModule</title>
<path fill="none" stroke="black" d="M120.9,-79.64C120.9,-79.64 120.9,-103.32 120.9,-103.32"/>
<polygon fill="black" stroke="black" points="117.4,-103.32 120.9,-113.32 124.4,-103.32 117.4,-103.32"/>
</g>
</g>
</svg>
