<?xml version="1.0" encoding="UTF-8" standalone="no"?>
<!DOCTYPE svg PUBLIC "-//W3C//DTD SVG 1.1//EN"
 "http://www.w3.org/Graphics/SVG/1.1/DTD/svg11.dtd">
<!-- Generated by graphviz version 2.47.3 (20210619.1520)
 -->
<!-- Title: dependencies Pages: 1 -->
<svg width="309pt" height="250pt"
 viewBox="0.00 0.00 309.00 249.80" xmlns="http://www.w3.org/2000/svg" xmlns:xlink="http://www.w3.org/1999/xlink">
<g id="graph0" class="graph" transform="scale(1 1) rotate(0) translate(4 245.8)">
<title>dependencies</title>
<polygon fill="white" stroke="transparent" points="-4,4 -4,-245.8 305,-245.8 305,4 -4,4"/>
<text text-anchor="middle" x="150.5" y="-8.2" font-family="sans-serif" font-size="14.00">dependencies</text>
<g id="clust1" class="cluster">
<title>cluster_AppModule</title>
<polygon fill="none" stroke="black" stroke-dasharray="1,5" points="8,-108.8 8,-233.8 276,-233.8 276,-108.8 8,-108.8"/>
</g>
<g id="clust3" class="cluster">
<title>cluster_AppModule_imports</title>
<polygon fill="none" stroke="black" points="154,-116.8 154,-168.8 268,-168.8 268,-116.8 154,-116.8"/>
</g>
<g id="clust6" class="cluster">
<title>cluster_AppModule_providers</title>
<polygon fill="none" stroke="black" points="16,-116.8 16,-168.8 146,-168.8 146,-116.8 16,-116.8"/>
</g>
<g id="clust7" class="cluster">
<title>cluster_FilmesModule</title>
<polygon fill="none" stroke="black" stroke-dasharray="1,5" points="129,-32.8 129,-100.8 293,-100.8 293,-32.8 129,-32.8"/>
</g>
<g id="clust12" class="cluster">
<title>cluster_FilmesModule_providers</title>
<polygon fill="none" stroke="black" points="137,-40.8 137,-92.8 285,-92.8 285,-40.8 137,-40.8"/>
</g>
<!-- FilmesModule -->
<g id="node1" class="node">
<title>FilmesModule</title>
<polygon fill="#8dd3c7" stroke="black" points="259.66,-160.8 256.66,-164.8 235.66,-164.8 232.66,-160.8 162.34,-160.8 162.34,-124.8 259.66,-124.8 259.66,-160.8"/>
<text text-anchor="middle" x="211" y="-138.6" font-family="Times,serif" font-size="14.00">FilmesModule</text>
</g>
<!-- AppModule -->
<g id="node2" class="node">
<title>AppModule</title>
<polygon fill="#8dd3c7" stroke="black" points="187.66,-225.8 184.66,-229.8 163.66,-229.8 160.66,-225.8 104.34,-225.8 104.34,-189.8 187.66,-189.8 187.66,-225.8"/>
<text text-anchor="middle" x="146" y="-203.6" font-family="Times,serif" font-size="14.00">AppModule</text>
</g>
<!-- FilmesModule&#45;&gt;AppModule -->
<g id="edge1" class="edge">
<title>FilmesModule&#45;&gt;AppModule</title>
<path fill="none" stroke="black" d="M175,-160.91C175,-160.91 175,-179.79 175,-179.79"/>
<polygon fill="black" stroke="black" points="171.5,-179.79 175,-189.79 178.5,-179.79 171.5,-179.79"/>
</g>
<!-- AppService -->
<g id="node3" class="node">
<title>AppService</title>
<ellipse fill="#fdb462" stroke="black" cx="81" cy="-142.8" rx="56.74" ry="18"/>
<text text-anchor="middle" x="81" y="-138.6" font-family="Times,serif" font-size="14.00">AppService</text>
</g>
<!-- AppService&#45;&gt;AppModule -->
<g id="edge2" class="edge">
<title>AppService&#45;&gt;AppModule</title>
<path fill="none" stroke="black" d="M120.9,-155.64C120.9,-155.64 120.9,-179.32 120.9,-179.32"/>
<polygon fill="black" stroke="black" points="117.4,-179.32 120.9,-189.32 124.4,-179.32 117.4,-179.32"/>
</g>
<!-- FilmesService -->
<g id="node4" class="node">
<title>FilmesService</title>
<ellipse fill="#fdb462" stroke="black" cx="211" cy="-66.8" rx="66.06" ry="18"/>
<text text-anchor="middle" x="211" y="-62.6" font-family="Times,serif" font-size="14.00">FilmesService</text>
</g>
<!-- FilmesService&#45;&gt;FilmesModule -->
<g id="edge3" class="edge">
<title>FilmesService&#45;&gt;FilmesModule</title>
<path fill="none" stroke="black" d="M211,-84.81C211,-84.81 211,-114.65 211,-114.65"/>
<polygon fill="black" stroke="black" points="207.5,-114.65 211,-124.65 214.5,-114.65 207.5,-114.65"/>
</g>
</g>
</svg>
